<svg width="500" height="500" xmlns="http://www.w3.org/2000/svg">

 <g>
  <title>background</title>
  <rect fill="none" id="canvas_background" height="402" width="582" y="-1" x="-1"/>
 </g>
 <g>
  <title>Layer 1</title>
  <path stroke="#000000" id="svg_3" stroke-width="10" stroke-miterlimit="2.6131" stroke-linejoin="round" stroke-linecap="round" fill-rule="evenodd" fill="none" d="m87.049761,105.24653l0,236.331c121.796201,-0.03 249.462151,-0.142 371.171655,-0.142c1.105662,0 2.116063,-0.416 2.852458,-1.085l0.033181,-0.03c0.716058,-0.689 1.160249,-1.632 1.160249,-2.676c0,-77.658 -0.390674,-154.709 -0.390674,-232.398l-374.826868,0z" clip-rule="evenodd"/>
  <path stroke="#000000" id="svg_4" stroke-width="10" stroke-miterlimit="2.6131" stroke-linejoin="round" stroke-linecap="round" fill-rule="evenodd" fill="none" d="m84.622245,76.529732l380.072557,0c13.492008,0 24.53127,10.553119 24.53127,23.462114l0,120.814299l0,24.627288l0,104.919433c0,5.489445 -2.3488,10.47927 -6.138539,14.10152l-0.038146,0.037381c-3.789739,3.62225 -9.008022,5.867807 -14.74985,5.867807l-61.531297,0l-17.861556,0l-304.284439,0c-13.483425,0 -24.531269,-10.553119 -24.531269,-23.452997l0,-246.913819c0,-12.908995 11.038308,-23.463026 24.531269,-23.463026z" clip-rule="evenodd"/>
  <path stroke="#000000" id="svg_9" fill-rule="evenodd" fill="#000000" d="m312.384275,205.073977c6.091,0 11.068,-4.967 11.068,-11.068c0,-6.091 -4.977,-11.058 -11.068,-11.058c-6.102,0 -11.068,4.967 -11.068,11.058c0,6.101 4.966,11.068 11.068,11.068z" clip-rule="evenodd"/>
  <path stroke="#000000" id="svg_10" fill-rule="evenodd" fill="#000000" d="m241.253894,204.368551c6.091,0 11.068,-4.977 11.068,-11.068c0,-6.102 -4.977,-11.068 -11.068,-11.068c-6.102,0 -11.068,4.967 -11.068,11.068c0,6.092 4.966,11.068 11.068,11.068z" clip-rule="evenodd"/>
  <path stroke="#000000" id="svg_11" fill-rule="evenodd" fill="#000000" d="m193.359441,212.178785c8.439691,0 15.335823,-7.521856 15.335823,-16.761003c0,-9.224003 -6.896132,-16.74586 -15.335823,-16.74586c-8.454932,0 -15.335823,7.521856 -15.335823,16.74586c0,9.239147 6.880891,16.761003 15.335823,16.761003z" clip-rule="evenodd"/>
  <line stroke="#000000" id="svg_18" y2="193.956" y1="193.956" x2="418.551173" x1="130.765891" stroke-width="10" stroke-miterlimit="2.6131" stroke-linejoin="round" stroke-linecap="round" fill-rule="evenodd" fill="none" clip-rule="evenodd"/>
  <line stroke="#000000" id="svg_19" y2="229.947" y1="229.947" x2="416.180156" x1="133.136894" stroke-width="10" stroke-miterlimit="2.6131" stroke-linejoin="round" stroke-linecap="round" fill-rule="evenodd" fill="none" clip-rule="evenodd"/>
  <line stroke="#000000" id="svg_20" y2="265.938" y1="265.938" x2="414.283351" x1="135.033713" stroke-width="10" stroke-miterlimit="2.6131" stroke-linejoin="round" stroke-linecap="round" fill-rule="evenodd" fill="none" clip-rule="evenodd"/>
  <path stroke="#000000" id="svg_21" fill-rule="evenodd" fill="#000000" d="m221.337385,241.113371c6.091,0 11.068,-4.967 11.068,-11.068c0,-6.091 -4.977,-11.058 -11.068,-11.058c-6.102,0 -11.068,4.967 -11.068,11.058c0,6.101 4.966,11.068 11.068,11.068z" clip-rule="evenodd"/>
  <path stroke="#000000" id="svg_22" fill-rule="evenodd" fill="#000000" d="m383.040471,246.321371c8.439691,0 15.335823,-7.521856 15.335823,-16.761003c0,-9.224004 -6.896132,-16.74586 -15.335823,-16.74586c-8.454932,0 -15.335823,7.521856 -15.335823,16.74586c0,9.239147 6.880891,16.761003 15.335823,16.761003z" clip-rule="evenodd"/>
  <path stroke="#000000" id="svg_23" fill-rule="evenodd" fill="#000000" d="m261.644613,279.515546c8.439691,0 15.335823,-7.521856 15.335823,-16.761003c0,-9.224004 -6.896132,-16.74586 -15.335823,-16.74586c-8.454932,0 -15.335823,7.521856 -15.335823,16.74586c0,9.239147 6.880891,16.761003 15.335823,16.761003z" clip-rule="evenodd"/>
  <path stroke="#000000" id="svg_24" fill-rule="evenodd" fill="#000000" d="m184.349577,278.101168c6.091,0 11.068,-4.967 11.068,-11.068c0,-6.091 -4.977,-11.058 -11.068,-11.058c-6.102,0 -11.068,4.967 -11.068,11.058c0,6.101 4.966,11.068 11.068,11.068z" clip-rule="evenodd"/>
  <path stroke="#000000" id="svg_25" fill-rule="evenodd" fill="#000000" d="m332.300787,278.101172c6.091,0 11.068,-4.967 11.068,-11.068c0,-6.091 -4.977,-11.058 -11.068,-11.058c-6.102,0 -11.068,4.967 -11.068,11.058c0,6.101 4.966,11.068 11.068,11.068z" clip-rule="evenodd"/>
  <line stroke="#000000" id="svg_27" y2="193.956" y1="193.956" x2="418.551173" x1="130.765891" stroke-width="10" stroke-miterlimit="2.6131" stroke-linejoin="round" stroke-linecap="round" fill-rule="evenodd" fill="none" clip-rule="evenodd"/>
  <line stroke-linecap="round" stroke-linejoin="round" id="svg_28" y2="139.451543" x2="180.292224" y1="139.451543" x1="115.800676" fill-opacity="null" stroke-opacity="null" stroke-width="10" stroke="#000000" fill="none"/>
  <rect stroke="#000000" id="svg_32" height="23.710126" width="144.157548" y="371.810796" x="202.579754" fill-opacity="null" stroke-opacity="null" stroke-width="10" fill="none"/>
  <rect stroke="#000000" rx="8" id="svg_34" height="23.710126" width="274.089043" y="396.46933" x="137.614003" fill-opacity="null" stroke-opacity="null" stroke-width="10" fill="none"/>
 </g>
</svg>