<svg width="1920.0000000000002" height="1920.0000000000002" xmlns="http://www.w3.org/2000/svg">
 <g>
  <title>background</title>
  <rect x="-1" y="-1" width="118.540023" height="118.540023" id="canvas_background" fill="none"/>
 </g>

 <g>
  <title>Layer 1</title>
  <rect stroke="#231f20" transform="rotate(90 985.008544921875,757.7938232421876) " fill="none" stroke-width="50" stroke-opacity="null" fill-opacity="null" x="492.737999" y="-85.319541" width="984.541091" height="1686.226892" id="svg_10"/>
  <line fill="none" stroke-width="30" stroke-opacity="null" fill-opacity="null" x1="922.915309" y1="697.213557" x2="1748.118754" y2="697.213557" id="svg_11" stroke-linejoin="null" stroke-linecap="null" stroke="#231f20"/>
  <line fill="none" stroke-width="30" stroke-opacity="null" fill-opacity="null" x1="935.662169" y1="850.175828" x2="1735.371903" y2="850.175828" id="svg_12" stroke-linejoin="null" stroke-linecap="null" stroke="#231f20"/>
  <line fill="none" stroke-width="30" stroke-opacity="null" fill-opacity="null" x1="935.66214" y1="1010.42201" x2="1735.371874" y2="1010.42201" id="svg_13" stroke-linejoin="null" stroke-linecap="null" stroke="#231f20"/>
  <line transform="rotate(-15.120878219604492 1045.9810791015627,551.5354614257814) " fill="none" stroke-width="30" stroke-opacity="null" fill-opacity="null" x1="910.168434" y1="551.535199" x2="1181.794183" y2="551.535199" id="svg_16" stroke-linejoin="null" stroke-linecap="null" stroke="#231f20"/>
  <ellipse fill="#231f20" stroke-width="50" cx="1177.852373" cy="516.936597" id="svg_17" rx="45.524484" ry="45.524484"/>
  <line transform="rotate(-26.732831954956055 1599.5587158203123,504.1898803710941) " fill="none" stroke-width="30" stroke-opacity="null" fill-opacity="null" x1="1463.746159" y1="504.189736" x2="1735.371908" y2="504.189736" id="svg_18" stroke-linejoin="null" stroke-linecap="null" stroke="#231f20"/>
  <line transform="rotate(10.017102241516113 1315.485961914061,547.8934936523441) " fill="none" stroke-width="30" stroke-opacity="null" fill-opacity="null" x1="1179.673393" y1="547.89324" x2="1451.299143" y2="547.89324" id="svg_19" stroke-linejoin="null" stroke-linecap="null" stroke="#231f20"/>
  <ellipse fill="#231f20" stroke-width="50" cx="1465.567125" cy="564.28206" id="svg_20" rx="45.524484" ry="45.524484"/>
  <ellipse fill="#231f20" stroke-width="50" cx="1711.019853" cy="450.516438" id="svg_21" rx="45.524484" ry="45.524484"/>
  <g stroke="null" id="svg_9">
   <path stroke="null" class="st0" d="m309.623404,741.544952l190.692903,-186.81776l27.376068,26.817876l-190.692903,186.817769l-27.376068,-26.817885z" id="Layer_2" fill="#ffffff" stroke-width="20"/>
   <path stroke="null" class="st0" d="m833.285224,501.525711l-40.534664,-39.709567l-198.806397,194.759583l40.534664,39.709567l40.534673,39.709558l198.806397,-194.759583l-40.534673,-39.709558z" id="Layer_4" fill="#ffffff" stroke-width="20"/>
   <path stroke="null" class="st0" d="m413.60811,833.240939l-198.806397,194.759583l40.534664,39.709567l40.534673,39.709558l198.806397,-194.804145l-40.534673,-39.664996l-40.534664,-39.709567z" id="Layer_17" fill="#ffffff" stroke-width="20"/>
   <path stroke="null" class="st0" d="m527.705689,581.524216l-190.708558,186.82658l85.982629,16.2671l121.331045,-118.905846l-16.605116,-84.187834z" id="Layer_5" fill="#ffffff" stroke-width="20"/>
   <path stroke="null" class="st0" d="m544.30746,903.485778l121.338338,-118.87257l37.895425,37.12275l-121.338338,118.87257l-37.895425,-37.12275z" id="Layer_6" fill="#ffffff" stroke-width="20"/>
   <path stroke="null" class="st0" d="m665.641849,784.617896l-121.331045,118.861284l-121.331045,-118.861284l121.331045,-118.905846l60.688266,59.452923l60.642778,59.452923z" id="Layer_7" fill="#ffffff" stroke-width="20"/>
   <path stroke="#231f20" class="st1" d="m593.955739,656.594121l198.831455,-194.790929l81.066614,79.413692l-198.831455,194.790929l-81.066614,-79.413692z" id="svg_1" fill="none" stroke-width="20" stroke-linecap="round" stroke-linejoin="round" stroke-miterlimit="10"/>
   <path stroke="#231f20" class="st1" d="m214.813298,1028.018925l198.831455,-194.790929l81.066614,79.413692l-198.831455,194.79092l-81.066614,-79.413682z" id="svg_2" fill="none" stroke-width="20" stroke-linecap="round" stroke-linejoin="round" stroke-miterlimit="10"/>
   <path stroke="#231f20" class="st1" d="m255.336376,1067.710089l577.948847,-566.184378" id="svg_3" fill="none" stroke-width="20" stroke-linecap="round" stroke-linejoin="round" stroke-miterlimit="10"/>
   <path stroke="#231f20" class="st1" d="m634.478826,696.285294l198.806397,-194.759583" id="svg_4" fill="none" stroke-width="20" stroke-linecap="round" stroke-linejoin="round" stroke-miterlimit="10"/>
   <path stroke="#231f20" class="st1" d="m422.970348,784.61998l121.338329,-118.872579l121.342565,118.868429l-121.338329,118.87257l-121.342565,-118.86842z" id="svg_5" fill="none" stroke-width="20" stroke-linecap="round" stroke-linejoin="round" stroke-miterlimit="10"/>
   <path stroke="#231f20" class="st1" d="m544.30746,903.485778l121.338338,-118.87257l37.895425,37.12275l-121.338338,118.87257l-37.895425,-37.12275z" id="svg_6" fill="none" stroke-width="20" stroke-linecap="round" stroke-linejoin="round" stroke-miterlimit="10"/>
   <path stroke="#231f20" class="st1" d="m527.705689,581.524216l16.605116,84.187834l-121.331045,118.905846l-85.982629,-16.2671l190.708558,-186.82658z" id="svg_7" fill="none" stroke-width="20" stroke-linecap="round" stroke-linejoin="round" stroke-miterlimit="10"/>
   <path stroke="#231f20" class="st1" d="m309.623404,741.544952l190.692903,-186.81776l27.376068,26.817876l-190.692903,186.817769l-27.376068,-26.817885z" id="svg_8" fill="none" stroke-width="20" stroke-linecap="round" stroke-linejoin="round" stroke-miterlimit="10"/>
  </g>
 </g>
</svg>