<svg width="499.99999999999994" height="499.99999999999994" xmlns="http://www.w3.org/2000/svg">

 <title/>
 <g>
  <title>background</title>
  <rect fill="none" id="canvas_background" height="402" width="582" y="-1" x="-1"/>
 </g>
 <g>
  <title>Layer 1</title>
  <g stroke="null" id="svg_34">
   <path stroke="null" fill="#231815" id="svg_28" d="m233.849591,297.169111l-14.696844,0c0,7.612316 4.892182,15.224631 14.696844,15.224631l181.254312,0c9.804663,0 14.696844,-7.612316 14.717144,-15.224631l-195.971456,0z" class="cls-2"/>
   <path stroke="null" fill="#231815" id="svg_29" d="m415.103903,281.94448l-181.254312,0c-9.804663,0 -14.696844,7.612316 -14.696844,15.224631l210.607401,0c0,-7.612316 -4.892182,-15.224631 -14.656245,-15.224631z" class="cls-2"/>
   <path stroke="null" fill="#231815" id="svg_30" d="m485.604096,215.098198c9.418972,-25.739777 -0.730782,-55.092866 -23.242937,-70.337797c-25.069893,-16.990689 -59.741454,-11.55042 -79.168083,11.225628a15.143433,15.143433 0 0 0 -2.720134,15.914815l13.478874,-5.156075a44.943112,44.943112 0 1 1 35.11815,73.078231l-226.197424,0l39.847935,-15.224631l-39.847935,0c-19.589026,0 -19.629625,30.449263 0,30.449263l214.565806,0c4.790684,0 9.621967,0.202995 14.392352,0a60.898526,60.898526 0 0 0 53.773398,-39.949433z" class="cls-2"/>
   <path stroke="null" fill="#231815" id="svg_31" d="m428.988767,239.741801a44.943112,44.943112 0 1 0 -35.11815,-73.078231l-13.499173,5.318471c3.755409,9.439271 15.874216,15.407327 24.257913,5.602664c12.504497,-14.595347 34.813657,-17.416978 47.663246,-1.25857a30.043273,30.043273 0 0 1 -7.531118,43.745441c-11.205329,7.084528 -28.419312,4.506491 -41.126804,4.506491l-160.934504,0l-39.827636,15.224631l226.116226,-0.060899z" class="cls-2"/>
   <path stroke="null" fill="#231815" id="svg_32" d="m411.652987,346.090927c-13.62097,-7.551417 -28.175718,-6.719137 -43.055258,-6.719137l-98.73681,0c-19.589026,0 -19.629625,30.449263 0,30.449263l21.984368,0l-21.984368,-15.143433l116.113189,0a37.127801,37.127801 0 1 1 -29.028297,60.30984l-11.915812,-8.2416a15.28553,15.28553 0 0 0 1.136772,19.02064a52.778722,52.778722 0 0 0 81.401029,-2.354743c18.858243,-24.7857 11.448923,-62.136796 -15.914815,-77.320828z" class="cls-2"/>
   <path stroke="null" fill="#231815" id="svg_33" d="m385.994408,428.872323a37.127801,37.127801 0 1 0 0,-74.275902l-116.113189,0l21.984368,15.224631l73.666917,0c11.611319,0 26.957747,-2.578038 35.970729,6.414645a22.024967,22.024967 0 0 1 0,30.99735c-10.271551,10.271551 -24.927797,7.104828 -33.758083,-3.085525c-7.44992,-8.606992 -17.78237,-4.932781 -22.674551,2.517139l11.915812,8.2416a37.066903,37.066903 0 0 0 29.007998,13.966062z" class="cls-2"/>
  </g>
  <path transform="rotate(-27.547868728637695 231.7630615234374,225.11520385742185) " stroke="null" fill="#231815" id="svg_2" d="m128.109873,307.402793a115.753267,115.753267 0 0 1 6.122372,-106.869553c24.461594,-40.374182 73.189536,-62.199948 119.602412,-52.800225a115.265151,115.265151 0 0 1 90.53858,94.945571a109.086995,109.086995 0 0 1 22.076798,10.083086a136.672532,136.672532 0 0 0 -89.060285,-120.062636c-52.56314,-19.273616 -114.219188,-2.259281 -149.600638,41.043598c-34.865442,42.647409 -40.792567,103.564309 -13.946177,151.664672a94.373778,94.373778 0 0 1 14.266939,-18.004514z" class="cls-2"/>
  <path transform="rotate(-27.547868728637695 156.3563842773437,80.56652832031251) " stroke="null" fill="#231815" id="svg_3" d="m145.896732,57.104689l0,46.928885c0,13.458061 20.919265,13.485953 20.919265,0l0,-46.928885c0,-13.472007 -20.919265,-13.485953 -20.919265,0zm10.459633,46.928885l0,0z" class="cls-2"/>
  <path transform="rotate(-27.547868728637695 80.98767089843744,149.7507629394531) " stroke="null" fill="#231815" id="svg_4" d="m101.765593,164.725157l-23.457469,-40.583374c-6.736003,-11.659004 -24.810248,-1.12964 -18.13003,10.557256l23.471415,40.653105c6.791788,11.686896 24.879979,1.115694 18.116084,-10.626987zm-9.037123,5.285601l-23.457469,-40.597321l23.457469,40.597321z" class="cls-2"/>
  <path transform="rotate(-27.547868728637695 50.31227111816403,247.30535888671872) " stroke="null" fill="#231815" id="svg_5" d="m75.920188,250.010778l-40.653105,-23.471415c-11.67295,-6.74995 -22.230206,11.324296 -10.557256,18.13003l40.653105,23.401685c11.645058,6.74995 22.230206,-11.324296 10.557256,-18.060299zm-45.92476,-14.434293l40.653105,23.471415l-40.653105,-23.471415z" class="cls-2"/>
  <path transform="rotate(-27.547868728637695 72.54352569580062,347.1365966796875) " stroke="null" fill="#231815" id="svg_6" d="m96.007963,336.67697l-46.928885,0c-13.458061,0 -13.485953,20.919265 0,20.919265l46.928885,0c13.458061,0 13.485953,-20.919265 0,-20.919265zm0,10.459633l0,0z" class="cls-2"/>
  <path transform="rotate(-27.547868728637695 141.7097930908203,422.5237731933593) " stroke="null" fill="#231815" id="svg_7" d="m156.761827,401.737769l-40.653105,23.471415c-11.659004,6.736003 -1.12964,24.810248 10.557256,18.13003l40.653105,-23.471415c11.659004,-6.847573 1.087802,-24.879979 -10.557256,-18.13003zm-35.367504,32.494592l40.653105,-23.471415l-40.653105,23.471415z" class="cls-2"/>
  <path transform="rotate(-27.547868728637695 353.77752685546875,89.03336334228517) " stroke="null" fill="#231815" id="svg_9" d="m368.82237,68.245737l-40.653105,23.471415c-11.659004,6.736003 -1.12964,24.810248 10.557256,18.13003l40.653105,-23.471415c11.67295,-6.791788 1.12964,-24.879979 -10.557256,-18.13003zm-35.367504,32.494592l40.653105,-23.471415l-40.653105,23.471415z" class="cls-2"/>
  <path transform="rotate(-27.547868728637695 256.1785888671875,58.32242202758787) " stroke="null" fill="#231815" id="svg_10" d="m258.88634,32.752108l-23.471415,40.583374c-6.74995,11.686896 11.324296,22.230206 18.13003,10.557256l23.401685,-40.583374c6.736003,-11.686896 -11.324296,-22.230206 -18.060299,-10.557256zm-14.434293,45.92476l23.471415,-40.653105l-23.471415,40.653105z" class="cls-2"/>
 </g>
</svg>