<?xml version="1.0" encoding="iso-8859-1"?>
<!-- Generator: Adobe Illustrator 19.0.0, SVG Export Plug-In . SVG Version: 6.00 Build 0)  -->
<svg version="1.1" id="Layer_1" xmlns="http://www.w3.org/2000/svg" xmlns:xlink="http://www.w3.org/1999/xlink" x="0px" y="0px"
	 viewBox="0 0 174.725 174.725" style="enable-background:new 0 0 174.725 174.725;" xml:space="preserve">
<g>
	<g>
		<g>
			<path d="M171.159,108.757c0-1.969-1.597-3.566-3.566-3.566H17.829c-0.293,0-0.555,0.1-0.828,0.167
				c-0.273-0.067-0.534-0.167-0.828-0.167c-4.985,0-9.041-4.799-9.041-10.697c0-5.898,4.057-10.697,9.041-10.697
				c1.969,0,3.566-1.597,3.566-3.566c0-1.969-1.597-3.566-3.566-3.566C7.255,76.665,0,84.664,0,94.494
				c0,9.83,7.255,17.829,16.173,17.829c0.293,0,0.555-0.1,0.828-0.167c0.273,0.067,0.535,0.167,0.828,0.167h149.764
				C169.562,112.323,171.159,110.726,171.159,108.757z"/>
			<path d="M89.145,62.402c15.729,0,28.526-12.797,28.526-28.526S104.874,5.349,89.145,5.349c-14.519,0-26.515,10.912-28.279,24.961
				h-0.248v7.132h0.248C62.63,51.49,74.626,62.402,89.145,62.402z M89.145,12.48c10.58,0,19.367,7.727,21.073,17.829H68.072
				C69.778,20.207,78.565,12.48,89.145,12.48z M110.217,37.441C108.512,47.543,99.726,55.27,89.145,55.27
				c-10.58,0-19.367-7.727-21.073-17.829H110.217z"/>
			<path d="M146.198,123.02c0-1.969-1.597-3.566-3.566-3.566H35.658c-1.969,0-3.566,1.597-3.566,3.566
				c0,1.969,1.597,3.566,3.566,3.566h106.974C144.601,126.586,146.198,124.989,146.198,123.02z"/>
			<path d="M35.658,98.06h106.974c1.969,0,3.566-1.597,3.566-3.566c0-1.969-1.597-3.566-3.566-3.566H35.658
				c-1.969,0-3.566,1.597-3.566,3.566C32.092,96.463,33.689,98.06,35.658,98.06z"/>
			<path d="M158.552,133.718c-0.293,0-0.555,0.1-0.828,0.167c-0.273-0.067-0.535-0.167-0.828-0.167H55.27
				c-1.969,0-3.566,1.597-3.566,3.566s1.597,3.566,3.566,3.566h101.626c0.293,0,0.555-0.1,0.828-0.167
				c0.273,0.067,0.534,0.167,0.828,0.167c4.985,0,9.041,4.798,9.041,10.697s-4.057,10.697-9.041,10.697
				c-1.969,0-3.566,1.597-3.566,3.566s1.597,3.566,3.566,3.566c8.918,0,16.173-7.999,16.173-17.829S167.469,133.718,158.552,133.718
				z"/>
		</g>
	</g>
</g>
<g>
</g>
<g>
</g>
<g>
</g>
<g>
</g>
<g>
</g>
<g>
</g>
<g>
</g>
<g>
</g>
<g>
</g>
<g>
</g>
<g>
</g>
<g>
</g>
<g>
</g>
<g>
</g>
<g>
</g>
</svg>
