<svg width="640" height="640" xmlns="http://www.w3.org/2000/svg">
 <g>
  <title>background</title>
  <rect x="-1" y="-1" width="642" height="642" id="canvas_background" fill="none"/>
 </g>

 <g>
  <title>Layer 1</title>
  <path fill="#000000" stroke="null" d="m407.337219,66.00794l-181.374471,0c-18.137878,0 -32.977176,14.839298 -32.977176,32.977176c-18.137878,0 -32.977176,14.839298 -32.977176,32.977176l0,0l0,0c-18.137878,0 -32.977176,14.839298 -32.977176,32.977176l0,379.237529c0,18.137016 14.839298,32.977176 32.977176,32.977176l247.328823,0c18.137016,0 32.977176,-14.84016 32.977176,-32.977176c18.137016,0 32.977176,-14.84016 32.977176,-32.977176c18.137016,0 32.977176,-14.84016 32.977176,-32.977176l0,-288.549863l0,-8.243863l-98.931529,-115.42098zm0,24.733313l77.496796,90.687666l-61.008208,0c-8.243863,0 -16.488588,-8.243863 -16.488588,-16.488588l0,-74.199078zm0,469.924333l-247.328823,0c-8.243863,0 -16.488588,-6.595435 -16.488588,-16.488588l0,-379.237529c0,-8.243863 6.595435,-16.488588 16.488588,-16.488588l0,0l0,362.748941c0,18.137016 14.839298,32.977176 32.977176,32.977176l230.840235,0c0,8.244725 -6.595435,16.488588 -16.488588,16.488588zm49.465765,-49.465765c0,8.243863 -6.595435,16.488588 -16.488588,16.488588l-247.328823,0c-8.243863,0 -16.488588,-6.595435 -16.488588,-16.488588l0,-379.237529c0,-8.243863 6.595435,-16.488588 16.488588,-16.488588l0,0l0,362.748941c0,18.137016 14.839298,32.977176 32.977176,32.977176l230.840235,0l0,0zm32.977176,-32.977176c0,8.243863 -6.595435,16.488588 -16.488588,16.488588l-247.328823,0c-8.243863,0 -16.488588,-6.595435 -16.488588,-16.488588l0,-379.237529c0,-8.243863 6.595435,-16.488588 16.488588,-16.488588l164.885882,0l0,82.442941c0,18.137878 14.84016,32.977176 32.977176,32.977176l65.954353,0l0,280.306z" id="svg_2"/>
  <g stroke="null" id="svg_1">
   <line stroke="#000000" fill="none" stroke-width="10" stroke-opacity="null" x1="262.188405" y1="254.520795" x2="432.872143" y2="254.520795" id="svg_18" stroke-linejoin="round" stroke-linecap="round"/>
   <line stroke="#000000" fill="none" stroke-width="10" stroke-opacity="null" x1="262.188404" y1="301.336906" x2="432.872142" y2="301.336906" id="svg_19" stroke-linejoin="round" stroke-linecap="round"/>
   <line stroke="#000000" fill="none" stroke-width="10" stroke-opacity="null" x1="262.188404" y1="347.177684" x2="432.872142" y2="347.177684" id="svg_20" stroke-linejoin="round" stroke-linecap="round"/>
   <line stroke="#000000" fill="none" stroke-width="10" stroke-opacity="null" x1="262.188399" y1="392.043127" x2="432.872137" y2="392.043127" id="svg_21" stroke-linejoin="round" stroke-linecap="round"/>
   <line stroke="#000000" fill="none" stroke-width="10" stroke-opacity="null" x1="262.18841" y1="441.785242" x2="432.872148" y2="441.785242" id="svg_22" stroke-linejoin="round" stroke-linecap="round"/>
  </g>
 </g>
</svg>