<svg width="1920" height="1920" xmlns="http://www.w3.org/2000/svg">

 <g>
  <title>background</title>
  <rect fill="none" id="canvas_background" height="482" width="482" y="-1" x="-1"/>
 </g>
 <g>
  <title>Layer 1</title>
  <rect stroke="#231f20" id="svg_10" height="1686.226892" width="1252.833798" y="149.43655" x="331.762148" fill-opacity="null" stroke-opacity="null" stroke-width="50" fill="none"/>
  <path stroke-width="20" stroke="null" fill="#ffffff" id="Layer_2" d="m709.239157,608.178064l205.248333,-205.255494l29.465659,29.464631l-205.248333,205.255494l-29.465659,-29.464631z" class="st0"/>
  <path stroke-width="20" stroke="null" fill="#ffffff" id="Layer_4" d="m1272.871643,344.470439l-43.628645,-43.628645l-213.981119,213.981119l43.628645,43.628645l43.628645,43.628645l213.981119,-213.981119l-43.628645,-43.628645z" class="st0"/>
  <path stroke-width="20" stroke="null" fill="#ffffff" id="Layer_17" d="m821.160928,708.923865l-213.981119,213.981119l43.628645,43.628645l43.628645,43.628645l213.981119,-214.030085l-43.628645,-43.579679l-43.628645,-43.628645z" class="st0"/>
  <path stroke-width="20" stroke="null" fill="#ffffff" id="Layer_5" d="m943.967483,432.364286l-205.265184,205.265184l92.54561,17.872565l130.592139,-130.641104l-17.872565,-92.496644z" class="st0"/>
  <path stroke-width="20" stroke="null" fill="#ffffff" id="Layer_6" d="m961.836451,786.101424l130.599985,-130.604542l40.787951,40.786528l-130.599985,130.604542l-40.787951,-40.786528z" class="st0"/>
  <path stroke-width="20" stroke="null" fill="#ffffff" id="Layer_7" d="m1092.432186,655.502034l-130.592139,130.592139l-130.592139,-130.592139l130.592139,-130.641104l65.320552,65.320552l65.271586,65.320552z" class="st0"/>
  <path stroke="#231f20" stroke-miterlimit="10" stroke-linejoin="round" stroke-linecap="round" stroke-width="20" fill="none" id="svg_1" d="m1015.274338,514.84312l214.008089,-214.015555l87.25436,87.251316l-214.008089,214.015555l-87.25436,-87.251316z" class="st1"/>
  <path stroke="#231f20" stroke-miterlimit="10" stroke-linejoin="round" stroke-linecap="round" stroke-width="20" fill="none" id="svg_2" d="m607.192285,922.925198l214.008089,-214.015555l87.25436,87.251316l-214.008089,214.015555l-87.25436,-87.251316z" class="st1"/>
  <path stroke="#231f20" stroke-miterlimit="10" stroke-linejoin="round" stroke-linecap="round" stroke-width="20" fill="none" id="svg_3" d="m650.808453,966.533629l622.06319,-622.06319" class="st1"/>
  <path stroke="#231f20" stroke-miterlimit="10" stroke-linejoin="round" stroke-linecap="round" stroke-width="20" fill="none" id="svg_4" d="m1058.890524,558.451558l213.981119,-213.981119" class="st1"/>
  <path stroke="#231f20" stroke-miterlimit="10" stroke-linejoin="round" stroke-linecap="round" stroke-width="20" fill="none" id="svg_5" d="m831.237776,655.504316l130.599985,-130.604542l130.604542,130.599985l-130.599985,130.604542l-130.604542,-130.599985z" class="st1"/>
  <path stroke="#231f20" stroke-miterlimit="10" stroke-linejoin="round" stroke-linecap="round" stroke-width="20" fill="none" id="svg_6" d="m961.836451,786.101424l130.599985,-130.604542l40.787951,40.786528l-130.599985,130.604542l-40.787951,-40.786528z" class="st1"/>
  <path stroke="#231f20" stroke-miterlimit="10" stroke-linejoin="round" stroke-linecap="round" stroke-width="20" fill="none" id="svg_7" d="m943.967483,432.364286l17.872565,92.496644l-130.592139,130.641104l-92.54561,-17.872565l205.265184,-205.265184z" class="st1"/>
  <path stroke="#231f20" stroke-miterlimit="10" stroke-linejoin="round" stroke-linecap="round" stroke-width="20" fill="none" id="svg_8" d="m709.239157,608.178064l205.248333,-205.255494l29.465659,29.464631l-205.248333,205.255494l-29.465659,-29.464631z" class="st1"/>
  <line stroke="#231f20" stroke-linecap="null" stroke-linejoin="null" id="svg_11" y2="1307.579463" x2="1359.094309" y1="1307.579463" x1="533.890864" fill-opacity="null" stroke-opacity="null" stroke-width="30" fill="none"/>
  <line stroke="#231f20" stroke-linecap="null" stroke-linejoin="null" id="svg_12" y2="1460.541734" x2="1346.347458" y1="1460.541734" x1="546.637724" fill-opacity="null" stroke-opacity="null" stroke-width="30" fill="none"/>
  <line stroke="#231f20" stroke-linecap="null" stroke-linejoin="null" id="svg_13" y2="1620.787916" x2="1346.347429" y1="1620.787916" x1="546.637695" fill-opacity="null" stroke-opacity="null" stroke-width="30" fill="none"/>
  <line transform="rotate(-15.120878219604492 656.9566040039073,1161.9013671875002) " stroke="#231f20" stroke-linecap="null" stroke-linejoin="null" id="svg_16" y2="1161.901105" x2="792.769738" y1="1161.901105" x1="521.143989" fill-opacity="null" stroke-opacity="null" stroke-width="30" fill="none"/>
  <ellipse ry="45.524484" rx="45.524484" id="svg_17" cy="1127.302503" cx="788.827928" stroke-width="50" fill="#231f20"/>
  <line transform="rotate(-26.732831954956055 1210.5343017578125,1114.5557861328125) " stroke="#231f20" stroke-linecap="null" stroke-linejoin="null" id="svg_18" y2="1114.555642" x2="1346.347463" y1="1114.555642" x1="1074.721714" fill-opacity="null" stroke-opacity="null" stroke-width="30" fill="none"/>
  <line transform="rotate(10.017102241516113 926.4615478515648,1158.2593994140625) " stroke="#231f20" stroke-linecap="null" stroke-linejoin="null" id="svg_19" y2="1158.259146" x2="1062.274698" y1="1158.259146" x1="790.648948" fill-opacity="null" stroke-opacity="null" stroke-width="30" fill="none"/>
  <ellipse ry="45.524484" rx="45.524484" id="svg_20" cy="1174.647966" cx="1076.54268" stroke-width="50" fill="#231f20"/>
  <ellipse ry="45.524484" rx="45.524484" id="svg_21" cy="1050.82137" cx="1338.763719" stroke-width="50" fill="#231f20"/>
 </g>
</svg>